<svg xmlns="http://www.w3.org/2000/svg" xmlns:xlink="http://www.w3.org/1999/xlink" width="600" zoomAndPan="magnify" viewBox="0 0 450 449.999984" height="600" preserveAspectRatio="xMidYMid meet" version="1.0"><path fill="#000000" d="M 446.878906 294.257812 C 446.089844 288.054688 445.308594 281.792969 444.527344 275.527344 C 444.296875 271.046875 443.433594 266.691406 441.933594 262.464844 C 438.628906 255.238281 428.871094 255.054688 422.007812 254.636719 C 420.507812 254.546875 419.113281 254.113281 417.828125 253.335938 C 416.058594 252.011719 414.625 250.390625 413.53125 248.472656 C 412.433594 246.550781 411.765625 244.492188 411.527344 242.292969 C 408.347656 227.210938 406.730469 210.75 380.34375 195.867188 C 379.554688 195.386719 378.863281 194.792969 378.265625 194.085938 C 377.667969 193.382812 377.195312 192.601562 376.847656 191.746094 C 376.5 190.890625 376.296875 190 376.234375 189.078125 C 376.171875 188.15625 376.253906 187.25 376.484375 186.351562 C 380.222656 170.15625 388.949219 136.742188 368.058594 128.066406 C 348.785156 120.121094 330.542969 137.644531 317.785156 149.683594 C 316.929688 150.515625 315.945312 151.140625 314.832031 151.5625 C 310.199219 159.425781 304.660156 166.585938 298.210938 173.046875 C 296.460938 174.796875 294.714844 176.417969 292.910156 177.988281 C 292.683594 178.832031 292.332031 179.617188 291.851562 180.34375 C 291.375 181.074219 290.792969 181.707031 290.109375 182.25 C 289.425781 182.792969 288.675781 183.214844 287.855469 183.515625 C 287.039062 183.816406 286.191406 183.980469 285.320312 184.007812 C 284.488281 184.097656 283.667969 184.035156 282.855469 183.828125 C 275.703125 182.140625 268.476562 180.875 261.179688 180.03125 C 253.648438 179.15625 246.097656 178.703125 238.519531 178.667969 C 230.9375 178.636719 223.382812 179.019531 215.84375 179.828125 C 208.308594 180.632812 200.839844 181.851562 193.441406 183.488281 C 186.039062 185.121094 178.753906 187.160156 171.578125 189.605469 C 171.335938 189.667969 171.160156 189.726562 170.972656 189.789062 C 170.453125 189.9375 169.925781 190.027344 169.386719 190.0625 C 168.851562 190.097656 168.316406 190.074219 167.78125 189.992188 C 167.25 189.910156 166.730469 189.773438 166.226562 189.578125 C 165.722656 189.386719 165.246094 189.140625 164.796875 188.839844 C 164.347656 188.542969 163.9375 188.199219 163.5625 187.8125 C 163.1875 187.425781 162.855469 187.003906 162.574219 186.542969 C 162.289062 186.085938 162.058594 185.601562 161.882812 185.089844 C 161.703125 184.582031 161.582031 184.058594 161.519531 183.523438 C 157.789062 180.808594 154.257812 177.859375 150.917969 174.675781 C 150.378906 174.191406 149.894531 173.710938 149.234375 173.046875 C 144.558594 168.371094 140.359375 163.300781 136.636719 157.835938 C 133.84375 159.039062 131.09375 160.339844 128.390625 161.734375 C 125.691406 163.128906 123.039062 164.621094 120.445312 166.203125 C 117.847656 167.785156 115.308594 169.460938 112.828125 171.222656 C 110.351562 172.984375 107.9375 174.832031 105.589844 176.765625 C 103.242188 178.695312 100.964844 180.710938 98.757812 182.804688 C 96.550781 184.898438 94.421875 187.066406 92.367188 189.308594 C 90.3125 191.554688 88.34375 193.867188 86.453125 196.25 C 84.5625 198.632812 82.757812 201.078125 81.039062 203.589844 C 79.324219 206.097656 77.695312 208.667969 76.160156 211.292969 C 74.625 213.917969 73.183594 216.59375 71.835938 219.320312 C 70.488281 222.046875 69.238281 224.816406 68.085938 227.632812 C 66.9375 230.449219 65.886719 233.300781 64.933594 236.1875 C 63.984375 239.078125 63.136719 241.996094 62.394531 244.945312 C 61.648438 247.894531 61.007812 250.867188 60.476562 253.863281 C 59.941406 256.855469 59.511719 259.863281 59.191406 262.890625 C 58.867188 265.914062 58.652344 268.945312 58.542969 271.984375 L 48.605469 272.183594 L 47.089844 272.367188 C 48.09375 268.988281 48.5625 265.535156 48.503906 262.011719 C 48.441406 258.488281 47.847656 255.054688 46.726562 251.714844 C 46.195312 250.082031 45.46875 248.542969 44.546875 247.09375 C 43.625 245.648438 42.535156 244.339844 41.28125 243.167969 C 40.023438 242 38.644531 241.003906 37.132812 240.1875 C 35.625 239.371094 34.039062 238.753906 32.371094 238.339844 C 30.71875 238.019531 29.046875 237.886719 27.363281 237.949219 C 25.675781 238.011719 24.019531 238.261719 22.394531 238.703125 C 20.765625 239.144531 19.210938 239.761719 17.722656 240.5625 C 16.238281 241.359375 14.863281 242.3125 13.597656 243.425781 C 2.753906 252.816406 5.117188 270.320312 14.746094 279.585938 C 16.320312 281.085938 18.035156 282.398438 19.894531 283.523438 C 19.714844 283.707031 19.59375 283.828125 19.53125 283.828125 C 18.5625 284.492188 17.59375 285.097656 16.625 285.644531 C 16.199219 285.824219 15.835938 286.066406 15.414062 286.25 C 15.140625 286.394531 14.859375 286.515625 14.566406 286.613281 C 12.519531 287.402344 10.417969 288.007812 8.265625 288.429688 C 7.734375 288.582031 7.222656 288.78125 6.734375 289.03125 C 6.242188 289.28125 5.777344 289.578125 5.34375 289.917969 C 4.910156 290.257812 4.511719 290.636719 4.152344 291.058594 C 3.792969 291.476562 3.476562 291.925781 3.203125 292.402344 C 2.933594 292.882812 2.710938 293.386719 2.535156 293.910156 C 2.359375 294.433594 2.238281 294.96875 2.167969 295.515625 C 2.097656 296.0625 2.082031 296.613281 2.121094 297.164062 C 2.15625 297.710938 2.246094 298.253906 2.390625 298.789062 C 2.550781 299.316406 2.761719 299.824219 3.019531 300.308594 C 3.277344 300.796875 3.578125 301.257812 3.925781 301.6875 C 4.269531 302.117188 4.652344 302.507812 5.074219 302.867188 C 5.496094 303.222656 5.945312 303.535156 6.425781 303.808594 C 6.90625 304.078125 7.40625 304.300781 7.929688 304.476562 C 8.453125 304.652344 8.988281 304.777344 9.535156 304.851562 C 10.082031 304.921875 10.628906 304.945312 11.179688 304.914062 C 11.730469 304.878906 12.273438 304.796875 12.808594 304.664062 C 15.308594 304.15625 17.746094 303.4375 20.121094 302.507812 C 22.492188 301.574219 24.769531 300.441406 26.941406 299.105469 C 29.117188 297.773438 31.160156 296.261719 33.066406 294.570312 C 34.976562 292.878906 36.722656 291.035156 38.308594 289.035156 C 40.941406 289.210938 50.726562 289.035156 59.257812 288.792969 C 59.855469 294.074219 60.804688 299.292969 62.113281 304.445312 C 63.296875 309.035156 64.722656 313.550781 66.394531 317.988281 C 68.070312 322.425781 69.976562 326.761719 72.121094 330.992188 C 74.265625 335.222656 76.632812 339.324219 79.21875 343.296875 C 81.808594 347.269531 84.605469 351.09375 87.609375 354.761719 C 90.613281 358.429688 93.808594 361.925781 97.191406 365.25 C 100.574219 368.574219 104.128906 371.703125 107.851562 374.640625 C 111.578125 377.578125 115.449219 380.304688 119.46875 382.820312 C 123.488281 385.335938 127.632812 387.628906 131.898438 389.695312 C 132.40625 389.765625 132.902344 389.878906 133.390625 390.035156 C 133.875 390.191406 134.34375 390.390625 134.796875 390.628906 C 135.25 390.871094 135.675781 391.148438 136.078125 391.460938 C 136.480469 391.777344 136.855469 392.125 137.195312 392.503906 C 137.539062 392.882812 137.84375 393.289062 138.113281 393.722656 C 138.382812 394.160156 138.613281 394.613281 138.804688 395.085938 C 138.996094 395.5625 139.144531 396.046875 139.246094 396.550781 C 139.351562 397.050781 139.414062 397.554688 139.429688 398.066406 C 139.832031 404.148438 140.253906 410.226562 140.6875 416.308594 C 141.113281 421.90625 141.171875 427.628906 141.953125 433.171875 C 142.015625 433.226562 142.4375 435.394531 142.5 435.699219 C 142.753906 436.828125 143.097656 437.933594 143.523438 439.011719 C 143.582031 439.011719 144.363281 440.390625 144.667969 440.9375 L 144.722656 440.996094 C 145.148438 441.355469 145.550781 441.738281 145.933594 442.140625 C 146.054688 442.140625 147.382812 443.226562 147.683594 443.402344 C 148.101562 443.582031 148.464844 443.824219 148.894531 444.007812 C 149.011719 444.066406 149.132812 444.109375 149.257812 444.128906 C 150.28125 444.433594 151.246094 444.789062 152.289062 445.03125 C 153.019531 445.125 153.742188 445.265625 154.457031 445.457031 C 158.742188 445.894531 163.039062 445.972656 167.339844 445.691406 C 168.484375 445.632812 169.566406 445.570312 170.710938 445.457031 C 170.878906 445.464844 171.039062 445.445312 171.195312 445.394531 C 171.675781 445.335938 172.160156 445.214844 172.640625 445.152344 C 172.941406 445.09375 174.6875 444.484375 174.867188 444.484375 C 175.324219 444.273438 175.765625 444.03125 176.195312 443.765625 C 176.4375 443.527344 176.550781 443.339844 176.671875 443.285156 C 176.855469 442.984375 177.035156 442.621094 177.21875 442.324219 C 177.21875 442.140625 177.757812 440.214844 177.824219 439.902344 C 177.878906 439.683594 177.917969 439.460938 177.945312 439.234375 L 177.945312 439.476562 C 177.980469 439.339844 178 439.199219 178.003906 439.058594 C 178.015625 438.59375 178.054688 438.132812 178.125 437.671875 C 178.308594 436.285156 178.367188 434.84375 178.550781 433.394531 C 179.027344 427.4375 179.566406 421.414062 180.113281 415.394531 C 180.164062 414.90625 180.246094 414.425781 180.355469 413.949219 C 180.394531 413.425781 180.484375 412.914062 180.617188 412.40625 C 180.753906 411.902344 180.9375 411.414062 181.164062 410.941406 C 181.394531 410.472656 181.664062 410.027344 181.976562 409.605469 C 182.289062 409.1875 182.636719 408.800781 183.023438 408.445312 C 183.40625 408.089844 183.820312 407.773438 184.265625 407.5 C 184.710938 407.222656 185.175781 406.992188 185.664062 406.800781 C 186.152344 406.613281 186.652344 406.472656 187.167969 406.378906 C 187.683594 406.285156 188.203125 406.238281 188.726562 406.242188 C 221.109375 410.550781 253.589844 411.414062 286.15625 408.839844 C 286.398438 408.839844 286.640625 408.902344 286.882812 408.902344 C 289.058594 409.171875 290.960938 410.03125 292.597656 411.488281 C 298.285156 416.804688 293.644531 427.734375 297.914062 438.140625 C 299.917969 442.984375 302.238281 443.855469 302.757812 444.015625 C 303.503906 444.25 305.757812 444.742188 306.8125 444.941406 C 307.417969 445.054688 308.023438 445.148438 308.628906 445.25 L 309.234375 445.320312 C 311.796875 445.578125 314.363281 445.660156 316.9375 445.570312 C 318.324219 445.527344 319.699219 445.390625 321.085938 445.273438 L 321.214844 445.273438 C 321.800781 445.210938 322.378906 445.113281 322.953125 444.976562 C 326.921875 443.8125 328.902344 443.238281 330.058594 441.871094 C 330.800781 440.128906 331.363281 438.332031 331.753906 436.480469 C 332.253906 434.660156 332.695312 432.832031 333.082031 430.984375 C 333.242188 430.199219 333.394531 429.40625 333.535156 428.609375 C 333.578125 428.394531 333.789062 427.054688 333.875 426.582031 C 333.875 426.359375 334.097656 424.710938 334.121094 424.457031 C 334.199219 423.652344 334.265625 422.84375 334.328125 422.035156 C 334.507812 419.441406 334.535156 416.765625 334.539062 416.386719 C 334.589844 411.003906 334.097656 403.0625 334.074219 402.675781 C 333.914062 400.410156 334.109375 398.175781 334.652344 395.972656 C 335.195312 393.765625 336.066406 391.699219 337.257812 389.769531 C 338.8125 387.441406 340.757812 385.515625 343.097656 383.984375 C 343.21875 383.929688 343.28125 383.867188 343.402344 383.867188 C 349.710938 381.574219 355.722656 378.667969 361.441406 375.148438 C 367.160156 371.628906 372.464844 367.570312 377.355469 362.972656 C 382.300781 358.398438 386.707031 353.359375 390.578125 347.847656 C 394.429688 342.359375 397.699219 336.542969 400.390625 330.40625 C 400.679688 329.535156 401.089844 328.730469 401.625 327.988281 C 402.160156 327.246094 402.792969 326.601562 403.527344 326.054688 C 404.257812 325.503906 405.054688 325.078125 405.914062 324.773438 C 406.777344 324.46875 407.664062 324.296875 408.578125 324.261719 C 419.117188 321.132812 429.953125 318.476562 440.191406 314.570312 C 441.769531 314.1875 443.191406 313.480469 444.457031 312.460938 C 445.722656 311.4375 446.707031 310.195312 447.417969 308.734375 C 448.242188 303.871094 448.0625 299.042969 446.878906 294.257812 Z M 31.402344 264.917969 C 31.28125 265.523438 31.160156 266.1875 31.039062 266.855469 C 30.796875 267.886719 30.375 268.914062 30.011719 270.003906 C 29.949219 269.925781 29.867188 269.886719 29.769531 269.882812 C 29.34375 269.640625 28.921875 269.339844 28.496094 269.097656 C 28.1875 268.835938 27.867188 268.59375 27.527344 268.371094 C 27.335938 268.21875 27.152344 268.058594 26.980469 267.886719 C 26.617188 267.582031 26.253906 267.21875 25.890625 266.855469 C 25.652344 266.585938 25.429688 266.304688 25.226562 266.007812 C 25.105469 265.824219 24.921875 265.582031 24.742188 265.339844 C 24.5 264.917969 24.316406 264.433594 24.074219 264.007812 C 23.953125 263.886719 23.953125 263.765625 23.894531 263.707031 C 23.867188 263.5625 23.824219 263.417969 23.773438 263.28125 C 23.652344 262.644531 23.492188 262.019531 23.289062 261.402344 C 23.289062 260.675781 23.226562 259.890625 23.226562 259.164062 C 23.347656 258.738281 23.46875 258.253906 23.589844 257.832031 C 23.589844 257.710938 23.589844 257.648438 23.652344 257.589844 L 23.710938 257.527344 C 23.894531 257.226562 24.074219 256.863281 24.316406 256.496094 C 24.316406 256.457031 24.335938 256.4375 24.378906 256.4375 C 24.378906 256.375 24.679688 256.132812 24.921875 255.890625 C 25.105469 255.769531 25.226562 255.648438 25.347656 255.589844 C 25.648438 255.40625 26.011719 255.226562 26.316406 255.042969 L 26.375 255.042969 C 26.800781 254.921875 27.222656 254.800781 27.585938 254.679688 C 27.710938 254.679688 27.648438 254.679688 27.710938 254.621094 C 27.953125 254.613281 28.195312 254.632812 28.4375 254.679688 C 28.558594 254.742188 28.859375 254.742188 29.101562 254.800781 L 29.222656 254.921875 C 29.292969 254.949219 29.355469 254.988281 29.40625 255.042969 L 29.707031 255.347656 C 29.90625 255.558594 30.085938 255.777344 30.253906 256.011719 C 30.433594 256.375 30.675781 256.800781 30.859375 257.226562 L 30.859375 257.285156 C 30.851562 257.355469 30.871094 257.417969 30.917969 257.46875 C 31.039062 258.074219 31.222656 258.617188 31.34375 259.164062 C 31.429688 259.398438 31.46875 259.640625 31.464844 259.890625 C 31.507812 260.089844 31.53125 260.292969 31.523438 260.496094 C 31.585938 261.101562 31.585938 261.707031 31.585938 262.253906 C 31.585938 263.101562 31.464844 264.007812 31.402344 264.917969 Z M 377.96875 241.089844 C 377.621094 242.464844 377.167969 243.804688 376.605469 245.109375 C 376.042969 246.414062 375.382812 247.664062 374.617188 248.863281 C 373.855469 250.058594 373 251.1875 372.058594 252.246094 C 371.113281 253.308594 370.089844 254.285156 368.988281 255.179688 C 367.886719 256.074219 366.71875 256.878906 365.488281 257.585938 C 364.257812 258.292969 362.980469 258.898438 361.652344 259.402344 C 360.324219 259.902344 358.964844 260.296875 357.574219 260.578125 C 356.183594 260.863281 354.777344 261.035156 353.359375 261.09375 C 351.941406 261.148438 350.527344 261.09375 349.117188 260.925781 C 347.707031 260.753906 346.320312 260.472656 344.957031 260.082031 C 343.589844 259.6875 342.265625 259.1875 340.984375 258.582031 C 339.699219 257.976562 338.472656 257.273438 337.300781 256.46875 C 336.128906 255.667969 335.03125 254.777344 334.003906 253.796875 C 332.976562 252.816406 332.03125 251.761719 331.175781 250.628906 C 330.316406 249.496094 329.554688 248.304688 328.890625 247.050781 C 328.222656 245.796875 327.660156 244.5 327.203125 243.15625 C 327.019531 242.628906 326.886719 242.089844 326.808594 241.539062 C 326.730469 240.988281 326.707031 240.433594 326.734375 239.878906 C 326.765625 239.320312 326.851562 238.773438 326.988281 238.234375 C 327.125 237.695312 327.316406 237.175781 327.558594 236.671875 C 327.796875 236.167969 328.085938 235.695312 328.417969 235.25 C 328.753906 234.804688 329.128906 234.394531 329.542969 234.023438 C 329.957031 233.652344 330.402344 233.324219 330.882812 233.039062 C 331.363281 232.757812 331.863281 232.523438 332.390625 232.335938 C 332.914062 232.152344 333.453125 232.019531 334.003906 231.941406 C 334.554688 231.863281 335.109375 231.839844 335.664062 231.867188 C 336.222656 231.898438 336.769531 231.984375 337.308594 232.121094 C 337.847656 232.257812 338.371094 232.449219 338.871094 232.6875 C 339.375 232.929688 339.847656 233.21875 340.292969 233.550781 C 340.738281 233.886719 341.148438 234.257812 341.519531 234.675781 C 341.890625 235.089844 342.21875 235.535156 342.503906 236.015625 C 342.789062 236.492188 343.023438 236.996094 343.207031 237.523438 C 343.347656 237.914062 343.503906 238.296875 343.65625 238.683594 C 344.085938 239.351562 344.503906 240.023438 344.976562 240.671875 C 345.152344 240.847656 345.320312 241.023438 345.503906 241.191406 C 346.101562 241.625 346.671875 242.089844 347.21875 242.585938 C 347.5 242.75 347.785156 242.914062 348.078125 243.0625 C 348.488281 243.269531 348.902344 243.445312 349.289062 243.632812 C 349.9375 243.820312 350.597656 243.976562 351.261719 244.097656 L 351.355469 244.097656 C 351.445312 244.117188 351.539062 244.128906 351.632812 244.136719 C 351.917969 244.132812 352.195312 244.167969 352.46875 244.246094 C 352.3125 244.191406 352.238281 244.183594 352.109375 244.140625 C 352.796875 244.113281 353.472656 244.007812 354.144531 243.953125 C 354.527344 243.84375 354.898438 243.722656 355.265625 243.589844 C 355.636719 243.457031 355.910156 243.34375 356.222656 243.210938 C 356.78125 242.753906 357.539062 242.421875 358.113281 241.996094 L 358.378906 241.792969 C 358.566406 241.621094 358.765625 241.457031 358.917969 241.296875 C 359.441406 240.75 359.886719 240.167969 360.347656 239.585938 C 360.566406 239.199219 360.777344 238.824219 360.953125 238.425781 C 361.097656 238.128906 361.21875 237.820312 361.359375 237.515625 C 361.410156 237.371094 361.480469 237.238281 361.570312 237.117188 C 361.707031 236.585938 361.890625 236.070312 362.125 235.574219 C 362.363281 235.078125 362.644531 234.609375 362.96875 234.171875 C 363.296875 233.730469 363.664062 233.324219 364.070312 232.957031 C 364.472656 232.585938 364.914062 232.261719 365.382812 231.976562 C 365.851562 231.691406 366.34375 231.457031 366.859375 231.269531 C 367.375 231.085938 367.90625 230.949219 368.449219 230.867188 C 368.988281 230.78125 369.535156 230.753906 370.082031 230.773438 C 370.632812 230.796875 371.171875 230.875 371.707031 231.003906 C 372.238281 231.132812 372.753906 231.3125 373.253906 231.542969 C 373.75 231.773438 374.222656 232.046875 374.664062 232.371094 C 375.109375 232.691406 375.519531 233.054688 375.890625 233.457031 C 376.265625 233.859375 376.597656 234.292969 376.886719 234.757812 C 377.171875 235.226562 377.414062 235.714844 377.605469 236.230469 C 377.796875 236.742188 377.9375 237.269531 378.027344 237.8125 C 378.117188 238.351562 378.152344 238.898438 378.136719 239.445312 C 378.121094 239.996094 378.050781 240.535156 377.925781 241.070312 Z M 135.691406 114.101562 C 134.84375 109.160156 134.421875 104.183594 134.425781 99.167969 C 134.414062 98.625 134.4375 98.082031 134.484375 97.539062 C 134.484375 95.554688 134.605469 93.507812 134.789062 91.582031 C 135.203125 85.734375 136.199219 79.988281 137.769531 74.339844 C 139.339844 68.691406 141.457031 63.257812 144.121094 58.039062 C 146.695312 53.046875 149.703125 48.339844 153.152344 43.914062 C 155.089844 41.429688 157.160156 39.0625 159.355469 36.808594 C 159.78125 36.328125 160.199219 35.90625 160.621094 35.421875 C 164.339844 31.757812 168.332031 28.429688 172.601562 25.425781 C 174.726562 23.945312 176.914062 22.558594 179.160156 21.265625 C 181.40625 19.976562 183.703125 18.785156 186.054688 17.695312 C 188.402344 16.601562 190.796875 15.617188 193.234375 14.734375 C 195.667969 13.851562 198.136719 13.074219 200.640625 12.40625 C 203.144531 11.738281 205.671875 11.183594 208.226562 10.734375 C 210.777344 10.289062 213.34375 9.953125 215.925781 9.726562 C 218.507812 9.503906 221.09375 9.390625 223.683594 9.394531 C 226.273438 9.394531 228.859375 9.507812 231.441406 9.734375 C 234.023438 9.960938 236.589844 10.300781 239.140625 10.75 C 241.691406 11.199219 244.21875 11.757812 246.722656 12.429688 C 249.222656 13.097656 251.691406 13.878906 254.128906 14.761719 C 256.5625 15.648438 258.953125 16.636719 261.304688 17.730469 C 263.652344 18.824219 265.949219 20.015625 268.195312 21.308594 C 270.441406 22.601562 272.625 23.992188 274.75 25.476562 C 276.871094 26.960938 278.929688 28.53125 280.914062 30.195312 C 282.902344 31.859375 284.8125 33.605469 286.648438 35.433594 C 288.722656 37.488281 290.691406 39.640625 292.554688 41.890625 C 294.414062 44.140625 296.160156 46.476562 297.789062 48.902344 C 299.421875 51.324219 300.925781 53.824219 302.308594 56.394531 C 303.691406 58.96875 304.945312 61.601562 306.066406 64.300781 C 307.1875 66.996094 308.171875 69.742188 309.019531 72.539062 C 309.871094 75.332031 310.578125 78.160156 311.148438 81.027344 C 311.714844 83.890625 312.140625 86.777344 312.421875 89.683594 C 312.707031 92.589844 312.84375 95.503906 312.839844 98.425781 C 312.839844 100.167969 312.785156 101.917969 312.664062 103.601562 C 312.542969 106.3125 312.238281 109.023438 311.875 111.671875 C 311.699219 113.117188 311.457031 114.558594 311.152344 115.949219 C 310.34375 120.3125 309.203125 124.589844 307.738281 128.785156 C 306.273438 132.976562 304.5 137.03125 302.417969 140.953125 C 300.332031 144.875 297.964844 148.617188 295.3125 152.175781 C 292.65625 155.738281 289.75 159.074219 286.585938 162.191406 C 285.152344 163.65625 283.648438 165.039062 282.070312 166.347656 C 264.988281 162.792969 247.726562 161.285156 230.289062 161.828125 C 231.316406 160.410156 231.839844 158.824219 231.851562 157.074219 L 231.851562 147.941406 C 234.339844 147.746094 236.761719 147.242188 239.121094 146.433594 C 243.257812 144.976562 246.875 142.6875 249.960938 139.570312 C 253.367188 136.171875 255.792969 132.179688 257.230469 127.589844 C 257.691406 126.070312 258.03125 124.523438 258.253906 122.949219 C 258.3125 122.464844 258.3125 122.046875 258.375 121.628906 C 258.429688 120.78125 258.488281 120 258.488281 119.15625 C 258.488281 118.671875 258.375 118.195312 258.375 117.648438 L 258.191406 116.390625 C 258.109375 115.507812 257.984375 114.636719 257.816406 113.765625 C 257.652344 112.898438 257.449219 112.039062 257.203125 111.1875 C 256.960938 110.339844 256.675781 109.503906 256.355469 108.679688 C 256.035156 107.855469 255.675781 107.046875 255.28125 106.257812 C 254.882812 105.464844 254.453125 104.695312 253.984375 103.945312 C 253.519531 103.191406 253.019531 102.464844 252.484375 101.761719 C 251.953125 101.054688 251.386719 100.375 250.789062 99.722656 C 250.195312 99.070312 249.570312 98.445312 248.914062 97.851562 C 248.261719 97.253906 247.582031 96.691406 246.875 96.160156 C 246.171875 95.625 245.441406 95.128906 244.691406 94.660156 C 243.9375 94.195312 243.167969 93.765625 242.375 93.371094 C 241.585938 92.976562 240.777344 92.621094 239.953125 92.300781 C 239.128906 91.980469 238.289062 91.699219 237.441406 91.453125 C 236.589844 91.210938 235.730469 91.007812 234.863281 90.84375 C 233.992188 90.679688 233.117188 90.554688 232.238281 90.472656 C 231.359375 90.390625 230.476562 90.347656 229.59375 90.34375 L 217.714844 90.34375 C 216.085938 90.34375 214.519531 90.03125 213.015625 89.398438 C 211.511719 88.769531 210.1875 87.875 209.046875 86.710938 C 208.984375 86.710938 208.984375 86.65625 208.925781 86.59375 C 207.902344 85.589844 207.078125 84.441406 206.453125 83.148438 C 205.828125 81.855469 205.441406 80.496094 205.292969 79.066406 C 205.242188 78.644531 205.222656 78.222656 205.230469 77.800781 C 205.222656 77.558594 205.242188 77.316406 205.292969 77.082031 C 205.328125 75.238281 205.832031 73.53125 206.800781 71.960938 C 207.316406 70.847656 208.019531 69.863281 208.90625 69.011719 C 210.070312 67.84375 211.414062 66.945312 212.9375 66.3125 C 214.460938 65.683594 216.046875 65.371094 217.695312 65.378906 L 229.621094 65.378906 C 230.4375 65.375 231.246094 65.449219 232.046875 65.605469 C 232.847656 65.761719 233.625 65.996094 234.378906 66.304688 C 235.132812 66.617188 235.847656 66.996094 236.527344 67.449219 C 237.207031 67.902344 237.832031 68.417969 238.410156 68.992188 C 238.984375 69.570312 239.5 70.199219 239.953125 70.878906 C 240.402344 71.554688 240.785156 72.273438 241.09375 73.027344 C 241.40625 73.78125 241.636719 74.558594 241.792969 75.359375 C 241.949219 76.160156 242.023438 76.96875 242.019531 77.78125 C 242.023438 78.324219 242.078125 78.859375 242.1875 79.386719 C 242.296875 79.917969 242.453125 80.433594 242.664062 80.929688 C 242.871094 81.429688 243.125 81.902344 243.425781 82.351562 C 243.730469 82.800781 244.070312 83.21875 244.453125 83.601562 C 244.835938 83.984375 245.25 84.324219 245.699219 84.625 C 246.148438 84.925781 246.621094 85.179688 247.121094 85.390625 C 247.621094 85.597656 248.132812 85.757812 248.664062 85.863281 C 249.195312 85.972656 249.730469 86.027344 250.269531 86.03125 C 251.3125 86.03125 252.316406 85.835938 253.285156 85.453125 C 254.25 85.066406 255.113281 84.515625 255.871094 83.804688 C 257.121094 82.636719 257.941406 81.222656 258.34375 79.5625 C 258.414062 79.164062 258.449219 78.757812 258.460938 78.351562 C 258.507812 78.171875 258.53125 77.992188 258.519531 77.808594 C 258.511719 76.910156 258.460938 76.015625 258.371094 75.125 C 258.28125 74.230469 258.148438 73.34375 257.976562 72.464844 C 257.800781 71.585938 257.589844 70.714844 257.335938 69.855469 C 257.082031 68.992188 256.792969 68.144531 256.460938 67.3125 C 256.128906 66.480469 255.761719 65.664062 255.355469 64.863281 C 254.949219 64.0625 254.503906 63.285156 254.027344 62.527344 C 253.546875 61.765625 253.035156 61.03125 252.488281 60.320312 C 251.945312 59.609375 251.367188 58.925781 250.757812 58.265625 C 250.148438 57.609375 249.507812 56.980469 248.839844 56.378906 C 248.171875 55.78125 247.480469 55.214844 246.761719 54.679688 C 246.039062 54.144531 245.296875 53.640625 244.53125 53.175781 C 243.765625 52.707031 242.980469 52.277344 242.175781 51.882812 C 241.367188 51.488281 240.546875 51.132812 239.707031 50.816406 C 238.871094 50.496094 238.019531 50.21875 237.152344 49.976562 C 236.289062 49.738281 235.417969 49.539062 234.535156 49.378906 C 233.652344 49.21875 232.761719 49.101562 231.871094 49.023438 L 231.871094 39.792969 C 231.867188 39.257812 231.808594 38.730469 231.703125 38.203125 C 231.59375 37.679688 231.4375 37.171875 231.230469 36.679688 C 231.023438 36.183594 230.769531 35.714844 230.46875 35.273438 C 230.171875 34.828125 229.832031 34.417969 229.453125 34.039062 C 229.070312 33.664062 228.660156 33.328125 228.210938 33.03125 C 227.765625 32.734375 227.296875 32.484375 226.800781 32.28125 C 226.304688 32.078125 225.796875 31.925781 225.269531 31.820312 C 224.746094 31.714844 224.214844 31.664062 223.679688 31.664062 C 223.207031 31.667969 222.734375 31.707031 222.269531 31.792969 C 221.800781 31.875 221.347656 31.996094 220.902344 32.160156 C 220.457031 32.324219 220.03125 32.527344 219.621094 32.765625 C 219.210938 33.003906 218.824219 33.277344 218.464844 33.582031 C 218.101562 33.886719 217.769531 34.222656 217.464844 34.589844 C 217.164062 34.953125 216.894531 35.34375 216.660156 35.753906 C 216.425781 36.164062 216.230469 36.59375 216.070312 37.042969 C 215.914062 37.488281 215.792969 37.945312 215.714844 38.414062 C 215.714844 38.472656 215.65625 38.535156 215.65625 38.59375 C 215.65625 38.65625 215.59375 38.769531 215.59375 38.832031 C 215.492188 39.144531 215.449219 39.464844 215.472656 39.792969 L 215.472656 49.007812 L 215.417969 49.007812 C 213.722656 49.140625 212.050781 49.425781 210.40625 49.859375 C 208.761719 50.296875 207.167969 50.871094 205.625 51.59375 C 204.082031 52.3125 202.617188 53.164062 201.226562 54.144531 C 199.835938 55.125 198.542969 56.222656 197.351562 57.4375 C 196.09375 58.683594 194.949219 60.03125 193.917969 61.472656 C 192.566406 63.40625 191.480469 65.480469 190.667969 67.691406 C 189.851562 69.90625 189.328125 72.1875 189.101562 74.535156 C 189.050781 74.753906 189.03125 74.976562 189.039062 75.203125 C 188.96875 75.78125 188.929688 76.363281 188.917969 76.945312 C 188.871094 77.164062 188.847656 77.382812 188.859375 77.605469 L 188.859375 77.789062 C 188.847656 79.6875 189.023438 81.566406 189.390625 83.429688 C 189.753906 85.292969 190.300781 87.101562 191.03125 88.855469 C 191.757812 90.605469 192.652344 92.269531 193.714844 93.84375 C 194.777344 95.417969 195.984375 96.871094 197.339844 98.199219 C 199.613281 100.496094 202.199219 102.355469 205.101562 103.78125 C 208 105.203125 211.054688 106.113281 214.261719 106.511719 C 215.402344 106.632812 216.542969 106.695312 217.691406 106.691406 L 229.617188 106.691406 C 230.304688 106.691406 230.984375 106.753906 231.664062 106.875 C 232.941406 107.089844 234.15625 107.492188 235.308594 108.089844 C 236.460938 108.6875 237.492188 109.445312 238.40625 110.367188 C 238.464844 110.421875 238.527344 110.484375 238.527344 110.542969 C 239.660156 111.6875 240.527344 113.007812 241.132812 114.5 C 241.738281 115.996094 242.03125 117.546875 242.015625 119.15625 C 242.027344 119.378906 242.007812 119.601562 241.960938 119.816406 C 241.960938 120.40625 241.902344 120.992188 241.777344 121.566406 C 241.296875 124.015625 240.171875 126.121094 238.40625 127.886719 C 238.277344 128.042969 238.136719 128.183594 237.980469 128.308594 C 236.851562 129.378906 235.5625 130.199219 234.117188 130.769531 C 232.671875 131.34375 231.171875 131.628906 229.617188 131.621094 L 217.714844 131.621094 C 216.054688 131.636719 214.460938 131.320312 212.929688 130.667969 C 211.402344 130.019531 210.066406 129.089844 208.925781 127.886719 C 207.902344 126.882812 207.078125 125.734375 206.453125 124.441406 C 205.828125 123.148438 205.441406 121.789062 205.292969 120.363281 C 205.238281 119.960938 205.21875 119.558594 205.230469 119.152344 C 205.226562 118.335938 205.105469 117.539062 204.867188 116.761719 C 204.625 115.980469 204.277344 115.253906 203.820312 114.578125 C 203.367188 113.90625 202.820312 113.308594 202.1875 112.796875 C 201.554688 112.285156 200.859375 111.875 200.105469 111.566406 C 199.351562 111.261719 198.566406 111.070312 197.753906 110.996094 C 196.945312 110.921875 196.140625 110.96875 195.339844 111.132812 C 194.542969 111.300781 193.785156 111.578125 193.070312 111.96875 C 192.355469 112.359375 191.714844 112.847656 191.144531 113.429688 C 190.503906 114.089844 190 114.839844 189.625 115.675781 C 189.253906 116.515625 189.035156 117.394531 188.972656 118.308594 C 188.867188 118.582031 188.828125 118.863281 188.851562 119.152344 C 188.84375 121.050781 189.019531 122.929688 189.386719 124.792969 C 189.75 126.65625 190.296875 128.464844 191.027344 130.214844 C 191.753906 131.96875 192.648438 133.632812 193.710938 135.207031 C 194.773438 136.777344 195.980469 138.230469 197.332031 139.5625 C 199.757812 141.996094 202.527344 143.929688 205.644531 145.371094 C 208.761719 146.8125 212.03125 147.664062 215.453125 147.933594 L 215.453125 157.085938 C 215.457031 158.113281 215.644531 159.105469 216.019531 160.0625 C 216.390625 161.015625 216.925781 161.871094 217.625 162.628906 C 202.027344 163.960938 186.773438 167.011719 171.863281 171.78125 C 168.347656 169.316406 165.058594 166.585938 161.992188 163.585938 C 161.507812 163.167969 161.082031 162.742188 160.542969 162.203125 C 156.121094 157.820312 152.207031 153.019531 148.808594 147.804688 C 145.410156 142.585938 142.597656 137.070312 140.375 131.253906 C 138.199219 125.703125 136.636719 119.984375 135.691406 114.101562 Z M 135.691406 114.101562 " fill-opacity="1" fill-rule="nonzero"/></svg>